<svg width="131" height="25" viewBox="0 0 131 25" fill="none" xmlns="http://www.w3.org/2000/svg">
<path d="M12.8333 0L15.6397 8.63729H24.7215L17.3742 13.9754L20.1806 22.6127L12.8333 17.2746L5.486 22.6127L8.29242 13.9754L0.945107 8.63729H10.0269L12.8333 0Z" fill="#E9B121"/>
<path d="M39.1667 0L41.9731 8.63729H51.0549L43.7076 13.9754L46.514 22.6127L39.1667 17.2746L31.8194 22.6127L34.6258 13.9754L27.2785 8.63729H36.3603L39.1667 0Z" fill="#E9B121"/>
<path d="M65.4997 0L68.3061 8.63729H77.3879L70.0406 13.9754L72.847 22.6127L65.4997 17.2746L58.1524 22.6127L60.9588 13.9754L53.6115 8.63729H62.6933L65.4997 0Z" fill="#E9B121"/>
<path d="M91.8327 0L94.6391 8.63729H103.721L96.3736 13.9754L99.18 22.6127L91.8327 17.2746L84.4854 22.6127L87.2918 13.9754L79.9445 8.63729H89.0263L91.8327 0Z" fill="#E9B121"/>
<path d="M118.166 0L120.972 8.63729H130.054L122.707 13.9754L125.513 22.6127L118.166 17.2746L110.818 22.6127L113.625 13.9754L106.278 8.63729H115.359L118.166 0Z" fill="#E9B121"/>
</svg>
